<?xml version="1.0" standalone="no"?>
<!DOCTYPE svg PUBLIC "-//W3C//DTD SVG 20010904//EN"
 "http://www.w3.org/TR/2001/REC-SVG-20010904/DTD/svg10.dtd">
<svg version="1.0" xmlns="http://www.w3.org/2000/svg"
 width="259.000000pt" height="259.000000pt" viewBox="0 0 259.000000 259.000000"
 preserveAspectRatio="xMidYMid meet">
<metadata>
Created by potrace 1.14, written by Peter Selinger 2001-2017
</metadata>
<g transform="translate(0.000000,259.000000) scale(0.100000,-0.100000)"
fill="#000000" stroke="none">
<path d="M1252 2507 c-29 -30 -121 -237 -165 -367 -53 -160 -53 -156 -15 -193
58 -56 143 -161 179 -220 18 -31 36 -57 39 -57 3 0 30 37 59 82 30 45 86 114
124 154 64 68 68 75 62 106 -33 149 -183 497 -220 512 -28 10 -41 7 -63 -17z"/>
<path d="M848 2463 c-17 -20 -34 -102 -52 -245 -6 -44 -5 -48 21 -62 16 -8 59
-40 97 -70 l69 -56 43 128 c24 70 43 132 44 138 0 6 -37 49 -82 97 -86 90
-111 103 -140 70z"/>
<path d="M1619 2418 c-33 -33 -71 -75 -84 -92 l-23 -31 41 -128 c23 -70 47
-126 52 -125 6 2 50 32 98 68 l88 65 -7 60 c-10 91 -11 97 -24 158 -22 106
-55 112 -141 25z"/>
<path d="M410 2270 c-19 -19 -21 -29 -16 -88 37 -462 223 -867 455 -991 51
-27 141 -56 141 -45 0 3 -17 21 -38 42 -158 155 -239 440 -235 827 2 151 19
127 -142 211 -130 68 -139 70 -165 44z"/>
<path d="M2033 2238 c-54 -28 -110 -57 -125 -65 -15 -8 -31 -20 -35 -26 -4 -6
-8 -91 -9 -187 -2 -96 -5 -188 -7 -205 -3 -16 -8 -50 -12 -75 -11 -79 -46
-209 -72 -273 -31 -77 -102 -185 -148 -226 -19 -17 -35 -32 -35 -35 0 -2 19 0
43 6 131 29 240 125 354 313 63 104 147 336 168 465 3 19 10 60 16 90 19 103
23 234 8 246 -33 26 -51 22 -146 -28z"/>
<path d="M784 1928 c3 -95 8 -186 11 -203 44 -216 67 -291 121 -383 65 -111
170 -190 263 -198 67 -6 73 1 51 66 -28 81 -19 243 19 343 9 22 5 37 -20 84
-34 64 -94 147 -150 208 -21 22 -46 49 -56 60 -10 11 -47 45 -83 75 -35 30
-72 62 -81 70 -10 8 -31 23 -48 33 l-31 18 4 -173z"/>
<path d="M1725 2048 c-159 -120 -318 -300 -381 -432 -83 -173 -90 -384 -13
-448 77 -65 221 2 321 149 59 87 117 265 133 408 4 33 9 71 11 85 5 31 6 281
1 286 -2 2 -35 -19 -72 -48z"/>
<path d="M106 1951 c-11 -12 -17 -30 -14 -43 6 -31 130 -228 143 -228 22 1
170 58 170 66 -1 22 -48 205 -54 208 -3 2 -56 7 -116 11 -103 7 -111 6 -129
-14z"/>
<path d="M2325 1964 c-5 -2 -30 -4 -54 -6 l-43 -3 -27 -108 -27 -107 51 -19
c124 -46 126 -46 146 -20 17 22 78 121 106 172 19 34 16 75 -7 87 -17 9 -118
12 -145 4z"/>
<path d="M325 1641 c-55 -20 -148 -60 -206 -88 -156 -74 -158 -103 -16 -181
209 -115 445 -198 617 -217 30 -4 59 -9 65 -11 5 -3 -8 9 -29 28 -116 97 -175
176 -254 341 -33 67 -63 131 -68 143 -9 21 -10 21 -109 -15z"/>
<path d="M2125 1603 c-78 -185 -179 -336 -277 -414 -58 -45 -53 -46 77 -24
171 30 464 145 623 244 42 27 45 71 5 99 -59 40 -348 162 -386 162 -8 0 -27
-30 -42 -67z"/>
<path d="M467 1124 c-30 -31 23 -95 94 -114 78 -21 245 -16 429 15 47 7 105
16 130 19 182 23 128 35 -155 35 -242 -1 -267 2 -465 47 -14 3 -29 2 -33 -2z"/>
<path d="M2056 1120 c-103 -31 -229 -43 -458 -42 -136 0 -240 -3 -243 -9 -4
-5 -3 -9 2 -9 4 0 51 -7 103 -15 328 -51 459 -60 555 -36 76 19 124 67 104
104 -11 19 -20 20 -63 7z"/>
<path d="M1050 873 c-130 -46 -191 -126 -185 -245 3 -61 20 -100 59 -140 39
-38 82 -56 193 -78 176 -36 213 -57 213 -116 0 -56 -60 -94 -150 -94 -69 0
-114 21 -147 69 l-28 40 -83 1 -84 0 7 -32 c22 -101 111 -176 237 -202 197
-40 387 42 416 180 11 54 -4 139 -32 180 -48 70 -98 94 -276 129 -97 19 -138
40 -147 74 -20 80 77 135 188 106 54 -13 72 -28 86 -70 9 -30 11 -30 90 -33
94 -3 99 2 74 70 -24 69 -57 105 -129 140 -57 28 -75 32 -161 34 -66 2 -110
-2 -141 -13z"/>
<path d="M91 478 l0 -398 84 0 85 0 0 266 0 267 183 -266 182 -266 78 -1 77 0
0 398 0 398 -82 0 -83 -1 -5 -252 -5 -252 -42 62 c-23 34 -72 105 -108 157
-36 52 -94 134 -127 183 -33 48 -65 91 -72 95 -6 4 -46 7 -88 8 l-77 0 0 -398z"/>
<path d="M1510 868 c0 -6 128 -443 207 -706 l24 -83 67 3 66 3 70 242 c39 133
73 240 77 238 3 -3 37 -113 75 -245 l68 -240 67 0 68 0 9 33 c5 17 44 149 87
292 43 143 81 274 85 290 5 17 18 61 29 100 12 38 21 73 21 76 0 11 -148 5
-158 -6 -5 -5 -37 -111 -72 -235 -34 -124 -64 -232 -67 -240 -6 -17 -17 7 -38
85 -11 42 -96 336 -111 386 -3 12 -18 16 -64 16 l-60 0 -20 -66 c-10 -36 -42
-147 -69 -245 -28 -98 -52 -181 -55 -183 -5 -5 -4 -9 -45 142 -35 124 -51 179
-80 281 l-21 71 -80 -1 c-44 0 -80 -4 -80 -8z"/>
</g>
</svg>
